<svg xmlns="http://www.w3.org/2000/svg" width="1200" height="400" viewBox="0 0 1200 400">
  <!-- Background gradient -->
  <defs>
    <linearGradient id="cta-gradient" x1="0%" y1="0%" x2="100%" y2="100%">
      <stop offset="0%" style="stop-color:#27ae60;stop-opacity:0.9"/>
      <stop offset="100%" style="stop-color:#2c3e50;stop-opacity:1"/>
    </linearGradient>
  </defs>
  
  <!-- Background rectangle -->
  <rect width="1200" height="400" fill="url(#cta-gradient)"/>
  
  <!-- Abstract pattern -->
  <g opacity="0.1" fill="#ffffff">
    <!-- Decorative circles -->
    <circle cx="100" cy="100" r="50"/>
    <circle cx="1100" cy="150" r="80"/>
    <circle cx="200" cy="300" r="40"/>
    <circle cx="1000" cy="250" r="60"/>
    <circle cx="600" cy="100" r="45"/>
    <circle cx="400" cy="250" r="55"/>
    <circle cx="800" cy="300" r="50"/>
    
    <!-- Abstract lines -->
    <path d="M0 200 Q300 150 600 200 T1200 170" stroke="#ffffff" stroke-width="3" fill="none"/>
    <path d="M0 250 Q300 300 600 250 T1200 280" stroke="#ffffff" stroke-width="3" fill="none"/>
  </g>
  
  <!-- World map outline (simplified) -->
  <g opacity="0.15" fill="none" stroke="#ffffff" stroke-width="1">
    <!-- Simplified world map outline -->
    <path d="M200,150 C250,140 300,160 350,150 C400,140 450,130 500,140 C550,150 600,140 650,130 C700,120 750,130 800,140 C850,150 900,140 950,130 C1000,120 1050,130 1100,140" />
    <path d="M150,180 C200,170 250,190 300,180 C350,170 400,160 450,170 C500,180 550,170 600,160 C650,150 700,160 750,170 C800,180 850,170 900,160 C950,150 1000,160 1050,170" />
    <path d="M200,210 C250,200 300,220 350,210 C400,200 450,190 500,200 C550,210 600,200 650,190 C700,180 750,190 800,200 C850,210 900,200 950,190 C1000,180 1050,190 1100,200" />
    <path d="M150,240 C200,230 250,250 300,240 C350,230 400,220 450,230 C500,240 550,230 600,220 C650,210 700,220 750,230 C800,240 850,230 900,220 C950,210 1000,220 1050,230" />
    <path d="M200,270 C250,260 300,280 350,270 C400,260 450,250 500,260 C550,270 600,260 650,250 C700,240 750,250 800,260 C850,270 900,260 950,250 C1000,240 1050,250 1100,260" />
  </g>
  
  <!-- Stylized agricultural elements -->
  <g opacity="0.1">
    <!-- Wheat/grain patterns -->
    <g transform="translate(100, 300)">
      <path d="M0 0 Q5 -20 10 0 Q15 -20 20 0" stroke="#ffffff" stroke-width="2" fill="none"/>
      <path d="M10 0 V30" stroke="#ffffff" stroke-width="2" fill="none"/>
    </g>
    
    <g transform="translate(300, 320)">
      <path d="M0 0 Q5 -20 10 0 Q15 -20 20 0" stroke="#ffffff" stroke-width="2" fill="none"/>
      <path d="M10 0 V30" stroke="#ffffff" stroke-width="2" fill="none"/>
    </g>
    
    <g transform="translate(500, 310)">
      <path d="M0 0 Q5 -20 10 0 Q15 -20 20 0" stroke="#ffffff" stroke-width="2" fill="none"/>
      <path d="M10 0 V30" stroke="#ffffff" stroke-width="2" fill="none"/>
    </g>
    
    <g transform="translate(700, 300)">
      <path d="M0 0 Q5 -20 10 0 Q15 -20 20 0" stroke="#ffffff" stroke-width="2" fill="none"/>
      <path d="M10 0 V30" stroke="#ffffff" stroke-width="2" fill="none"/>
    </g>
    
    <g transform="translate(900, 320)">
      <path d="M0 0 Q5 -20 10 0 Q15 -20 20 0" stroke="#ffffff" stroke-width="2" fill="none"/>
      <path d="M10 0 V30" stroke="#ffffff" stroke-width="2" fill="none"/>
    </g>
    
    <g transform="translate(1100, 310)">
      <path d="M0 0 Q5 -20 10 0 Q15 -20 20 0" stroke="#ffffff" stroke-width="2" fill="none"/>
      <path d="M10 0 V30" stroke="#ffffff" stroke-width="2" fill="none"/>
    </g>
  </g>
</svg>