<svg xmlns="http://www.w3.org/2000/svg" width="1200" height="300" viewBox="0 0 1200 300">
  <!-- Background gradient -->
  <defs>
    <linearGradient id="banner-gradient" x1="0%" y1="0%" x2="100%" y2="100%">
      <stop offset="0%" style="stop-color:#27ae60;stop-opacity:0.8"/>
      <stop offset="100%" style="stop-color:#2c3e50;stop-opacity:0.9"/>
    </linearGradient>
  </defs>
  
  <!-- Background rectangle -->
  <rect width="1200" height="300" fill="url(#banner-gradient)"/>
  
  <!-- Abstract pattern -->
  <g opacity="0.2" fill="#ffffff">
    <!-- Decorative circles -->
    <circle cx="100" cy="50" r="30"/>
    <circle cx="1100" cy="100" r="50"/>
    <circle cx="200" cy="250" r="20"/>
    <circle cx="1000" cy="200" r="40"/>
    <circle cx="600" cy="50" r="25"/>
    <circle cx="400" cy="200" r="35"/>
    <circle cx="800" cy="250" r="30"/>
    
    <!-- Abstract lines -->
    <path d="M0 150 Q300 100 600 150 T1200 120" stroke="#ffffff" stroke-width="2" fill="none"/>
    <path d="M0 180 Q300 220 600 180 T1200 200" stroke="#ffffff" stroke-width="2" fill="none"/>
  </g>
  
  <!-- Stylized agricultural elements -->
  <g opacity="0.15">
    <!-- Wheat/grain patterns -->
    <g transform="translate(50, 200)">
      <path d="M0 0 Q5 -20 10 0 Q15 -20 20 0" stroke="#ffffff" stroke-width="2" fill="none"/>
      <path d="M10 0 V30" stroke="#ffffff" stroke-width="2" fill="none"/>
    </g>
    
    <g transform="translate(150, 220)">
      <path d="M0 0 Q5 -20 10 0 Q15 -20 20 0" stroke="#ffffff" stroke-width="2" fill="none"/>
      <path d="M10 0 V30" stroke="#ffffff" stroke-width="2" fill="none"/>
    </g>
    
    <g transform="translate(250, 210)">
      <path d="M0 0 Q5 -20 10 0 Q15 -20 20 0" stroke="#ffffff" stroke-width="2" fill="none"/>
      <path d="M10 0 V30" stroke="#ffffff" stroke-width="2" fill="none"/>
    </g>
    
    <g transform="translate(350, 200)">
      <path d="M0 0 Q5 -20 10 0 Q15 -20 20 0" stroke="#ffffff" stroke-width="2" fill="none"/>
      <path d="M10 0 V30" stroke="#ffffff" stroke-width="2" fill="none"/>
    </g>
    
    <g transform="translate(450, 220)">
      <path d="M0 0 Q5 -20 10 0 Q15 -20 20 0" stroke="#ffffff" stroke-width="2" fill="none"/>
      <path d="M10 0 V30" stroke="#ffffff" stroke-width="2" fill="none"/>
    </g>
    
    <g transform="translate(550, 210)">
      <path d="M0 0 Q5 -20 10 0 Q15 -20 20 0" stroke="#ffffff" stroke-width="2" fill="none"/>
      <path d="M10 0 V30" stroke="#ffffff" stroke-width="2" fill="none"/>
    </g>
    
    <g transform="translate(650, 200)">
      <path d="M0 0 Q5 -20 10 0 Q15 -20 20 0" stroke="#ffffff" stroke-width="2" fill="none"/>
      <path d="M10 0 V30" stroke="#ffffff" stroke-width="2" fill="none"/>
    </g>
    
    <g transform="translate(750, 220)">
      <path d="M0 0 Q5 -20 10 0 Q15 -20 20 0" stroke="#ffffff" stroke-width="2" fill="none"/>
      <path d="M10 0 V30" stroke="#ffffff" stroke-width="2" fill="none"/>
    </g>
    
    <g transform="translate(850, 210)">
      <path d="M0 0 Q5 -20 10 0 Q15 -20 20 0" stroke="#ffffff" stroke-width="2" fill="none"/>
      <path d="M10 0 V30" stroke="#ffffff" stroke-width="2" fill="none"/>
    </g>
    
    <g transform="translate(950, 200)">
      <path d="M0 0 Q5 -20 10 0 Q15 -20 20 0" stroke="#ffffff" stroke-width="2" fill="none"/>
      <path d="M10 0 V30" stroke="#ffffff" stroke-width="2" fill="none"/>
    </g>
    
    <g transform="translate(1050, 220)">
      <path d="M0 0 Q5 -20 10 0 Q15 -20 20 0" stroke="#ffffff" stroke-width="2" fill="none"/>
      <path d="M10 0 V30" stroke="#ffffff" stroke-width="2" fill="none"/>
    </g>
    
    <g transform="translate(1150, 210)">
      <path d="M0 0 Q5 -20 10 0 Q15 -20 20 0" stroke="#ffffff" stroke-width="2" fill="none"/>
      <path d="M10 0 V30" stroke="#ffffff" stroke-width="2" fill="none"/>
    </g>
  </g>
</svg>