<svg xmlns="http://www.w3.org/2000/svg" width="600" height="150" viewBox="0 0 600 150">
  <!-- Agricultural Products Icon -->
  <g transform="translate(25, 25)">
    <circle cx="50" cy="50" r="50" fill="#e8f5e9"/>
    <g transform="translate(25, 25)">
      <!-- Wheat/Grain Icon -->
      <path d="M25 0 L25 50" stroke="#27ae60" stroke-width="3" fill="none"/>
      <path d="M15 10 Q25 0 35 10" stroke="#27ae60" stroke-width="2" fill="none"/>
      <path d="M10 20 Q25 10 40 20" stroke="#27ae60" stroke-width="2" fill="none"/>
      <path d="M5 30 Q25 20 45 30" stroke="#27ae60" stroke-width="2" fill="none"/>
    </g>
  </g>
  
  <!-- Frozen Products Icon -->
  <g transform="translate(175, 25)">
    <circle cx="50" cy="50" r="50" fill="#e3f2fd"/>
    <g transform="translate(25, 25)">
      <!-- Snowflake Icon -->
      <path d="M25 0 L25 50" stroke="#1976d2" stroke-width="2" fill="none"/>
      <path d="M0 25 L50 25" stroke="#1976d2" stroke-width="2" fill="none"/>
      <path d="M10 10 L40 40" stroke="#1976d2" stroke-width="2" fill="none"/>
      <path d="M10 40 L40 10" stroke="#1976d2" stroke-width="2" fill="none"/>
      <circle cx="25" cy="25" r="5" fill="#1976d2"/>
    </g>
  </g>
  
  <!-- Dairy Products Icon -->
  <g transform="translate(325, 25)">
    <circle cx="50" cy="50" r="50" fill="#f5f5f5"/>
    <g transform="translate(20, 15)">
      <!-- Milk Bottle Icon -->
      <path d="M20 0 L40 0 L40 10 L45 15 L45 60 L15 60 L15 15 L20 10 Z" fill="#fff" stroke="#616161" stroke-width="2"/>
      <path d="M25 20 L35 20 L35 40 L25 40 Z" fill="#e0e0e0"/>
    </g>
  </g>
  
  <!-- Spices & Herbs Icon -->
  <g transform="translate(475, 25)">
    <circle cx="50" cy="50" r="50" fill="#fff3e0"/>
    <g transform="translate(20, 15)">
      <!-- Mortar and Pestle Icon -->
      <path d="M15 40 Q30 30 45 40 L50 60 L10 60 Z" fill="#d7ccc8" stroke="#8d6e63" stroke-width="2"/>
      <path d="M30 10 L40 35 Q30 40 20 35 Z" fill="#8d6e63" stroke="#5d4037" stroke-width="2"/>
    </g>
  </g>
</svg>