<svg xmlns="http://www.w3.org/2000/svg" width="240" height="60" viewBox="0 0 240 60">
  <!-- Facebook Icon -->
  <g transform="translate(0, 0)">
    <circle cx="30" cy="30" r="25" fill="#f5f5f5"/>
    <path d="M37 20 h-4 c-3 0 -5 2 -5 5 v3 h-3 v5 h3 v12 h5 v-12 h4 l1 -5 h-5 v-3 c0 -1 1 -2 2 -2 h3 z" fill="#3b5998"/>
  </g>
  
  <!-- Twitter/X Icon -->
  <g transform="translate(60, 0)">
    <circle cx="30" cy="30" r="25" fill="#f5f5f5"/>
    <path d="M45 18 c-1.1 0.5 -2.2 0.8 -3.5 1 c1.3 -0.8 2.2 -2 2.7 -3.4 c-1.2 0.7 -2.5 1.2 -3.9 1.5 c-1.1 -1.2 -2.7 -1.9 -4.5 -1.9 c-3.4 0 -6.1 2.7 -6.1 6.1 c0 0.5 0.1 0.9 0.2 1.4 c-5.1 -0.3 -9.6 -2.7 -12.6 -6.4 c-0.5 0.9 -0.8 2 -0.8 3.1 c0 2.1 1.1 4 2.7 5.1 c-1 0 -1.9 -0.3 -2.7 -0.8 v0.1 c0 3 2.1 5.4 4.9 6 c-0.5 0.1 -1.1 0.2 -1.6 0.2 c-0.4 0 -0.8 0 -1.1 -0.1 c0.8 2.4 3 4.2 5.7 4.2 c-2.1 1.6 -4.7 2.6 -7.6 2.6 c-0.5 0 -1 0 -1.5 -0.1 c2.7 1.7 5.9 2.7 9.3 2.7 c11.1 0 17.2 -9.2 17.2 -17.2 c0 -0.3 0 -0.5 0 -0.8 c1.2 -0.9 2.2 -1.9 3 -3.2 z" fill="#1da1f2"/>
  </g>
  
  <!-- Instagram Icon -->
  <g transform="translate(120, 0)">
    <circle cx="30" cy="30" r="25" fill="#f5f5f5"/>
    <path d="M30 17 c4.2 0 4.7 0 6.3 0.1 c1.5 0.1 2.3 0.3 2.9 0.5 c0.7 0.3 1.2 0.6 1.7 1.1 c0.5 0.5 0.8 1 1.1 1.7 c0.2 0.5 0.4 1.3 0.5 2.9 c0.1 1.6 0.1 2.1 0.1 6.3 s0 4.7 -0.1 6.3 c-0.1 1.5 -0.3 2.3 -0.5 2.9 c-0.3 0.7 -0.6 1.2 -1.1 1.7 c-0.5 0.5 -1 0.8 -1.7 1.1 c-0.5 0.2 -1.3 0.4 -2.9 0.5 c-1.6 0.1 -2.1 0.1 -6.3 0.1 s-4.7 0 -6.3 -0.1 c-1.5 -0.1 -2.3 -0.3 -2.9 -0.5 c-0.7 -0.3 -1.2 -0.6 -1.7 -1.1 c-0.5 -0.5 -0.8 -1 -1.1 -1.7 c-0.2 -0.5 -0.4 -1.3 -0.5 -2.9 c-0.1 -1.6 -0.1 -2.1 -0.1 -6.3 s0 -4.7 0.1 -6.3 c0.1 -1.5 0.3 -2.3 0.5 -2.9 c0.3 -0.7 0.6 -1.2 1.1 -1.7 c0.5 -0.5 1 -0.8 1.7 -1.1 c0.5 -0.2 1.3 -0.4 2.9 -0.5 c1.6 -0.1 2.1 -0.1 6.3 -0.1 m0 -2.8 c-4.3 0 -4.8 0 -6.5 0.1 c-1.7 0.1 -2.8 0.3 -3.8 0.7 c-1 0.4 -1.9 0.9 -2.8 1.8 c-0.9 0.9 -1.4 1.7 -1.8 2.8 c-0.4 1 -0.6 2.1 -0.7 3.8 c-0.1 1.7 -0.1 2.2 -0.1 6.5 s0 4.8 0.1 6.5 c0.1 1.7 0.3 2.8 0.7 3.8 c0.4 1 0.9 1.9 1.8 2.8 c0.9 0.9 1.7 1.4 2.8 1.8 c1 0.4 2.1 0.6 3.8 0.7 c1.7 0.1 2.2 0.1 6.5 0.1 s4.8 0 6.5 -0.1 c1.7 -0.1 2.8 -0.3 3.8 -0.7 c1 -0.4 1.9 -0.9 2.8 -1.8 c0.9 -0.9 1.4 -1.7 1.8 -2.8 c0.4 -1 0.6 -2.1 0.7 -3.8 c0.1 -1.7 0.1 -2.2 0.1 -6.5 s0 -4.8 -0.1 -6.5 c-0.1 -1.7 -0.3 -2.8 -0.7 -3.8 c-0.4 -1 -0.9 -1.9 -1.8 -2.8 c-0.9 -0.9 -1.7 -1.4 -2.8 -1.8 c-1 -0.4 -2.1 -0.6 -3.8 -0.7 c-1.7 -0.1 -2.2 -0.1 -6.5 -0.1 z" fill="#e4405f"/>
    <path d="M30 22.3 c-4.3 0 -7.7 3.4 -7.7 7.7 s3.4 7.7 7.7 7.7 s7.7 -3.4 7.7 -7.7 s-3.4 -7.7 -7.7 -7.7 z m0 12.7 c-2.8 0 -5 -2.2 -5 -5 s2.2 -5 5 -5 s5 2.2 5 5 s-2.2 5 -5 5 z" fill="#e4405f"/>
    <circle cx="38" cy="22" r="1.8" fill="#e4405f"/>
  </g>
  
  <!-- LinkedIn Icon -->
  <g transform="translate(180, 0)">
    <circle cx="30" cy="30" r="25" fill="#f5f5f5"/>
    <path d="M20 20 h-5 v17 h5 z" fill="#0077b5"/>
    <path d="M17.5 17.5 c-1.7 0 -3 1.3 -3 3 s1.3 3 3 3 s3 -1.3 3 -3 s-1.3 -3 -3 -3 z" fill="#0077b5"/>
    <path d="M40 29 c0 -4.4 -3.6 -8 -8 -8 c-2.4 0 -4.5 1 -6 2.7 v-2.7 h-5 v17 h5 v-9 c0 -2.8 2.2 -5 5 -5 s5 2.2 5 5 v9 h5 v-9 z" fill="#0077b5"/>
  </g>
</svg>