<svg xmlns="http://www.w3.org/2000/svg" width="600" height="150" viewBox="0 0 600 150">
  <!-- Avatar 1 -->
  <g transform="translate(25, 25)">
    <circle cx="50" cy="50" r="50" fill="#e8f5e9"/>
    <circle cx="50" cy="40" r="20" fill="#27ae60"/>
    <path d="M50 60 C20 60 20 100 50 100 C80 100 80 60 50 60 Z" fill="#27ae60"/>
  </g>
  
  <!-- Avatar 2 -->
  <g transform="translate(175, 25)">
    <circle cx="50" cy="50" r="50" fill="#e3f2fd"/>
    <circle cx="50" cy="40" r="20" fill="#1976d2"/>
    <path d="M50 60 C20 60 20 100 50 100 C80 100 80 60 50 60 Z" fill="#1976d2"/>
  </g>
  
  <!-- Avatar 3 -->
  <g transform="translate(325, 25)">
    <circle cx="50" cy="50" r="50" fill="#fff3e0"/>
    <circle cx="50" cy="40" r="20" fill="#ff9800"/>
    <path d="M50 60 C20 60 20 100 50 100 C80 100 80 60 50 60 Z" fill="#ff9800"/>
  </g>
  
  <!-- Avatar 4 -->
  <g transform="translate(475, 25)">
    <circle cx="50" cy="50" r="50" fill="#f3e5f5"/>
    <circle cx="50" cy="40" r="20" fill="#9c27b0"/>
    <path d="M50 60 C20 60 20 100 50 100 C80 100 80 60 50 60 Z" fill="#9c27b0"/>
  </g>
</svg>